<svg version="1.1" xmlns="http://www.w3.org/2000/svg" xmlns:xlink="http://www.w3.org/1999/xlink" width="708" height="500"><defs></defs><g><g transform="translate(-6,-30) scale(1,1)"><rect fill="#C0C0C0" stroke="none" x="279" y="71" width="432" height="456" opacity="0.2"></rect></g><g transform="translate(-6,-30) scale(1,1)"><rect fill="#ffffff" stroke="none" x="272" y="64" width="432" height="456"></rect></g><g transform="translate(-6,-30) scale(1,1)"><path fill="none" stroke="#000000" d="M 272 64 L 704 64 L 704 520 L 272 520 L 272 64 Z Z" stroke-miterlimit="10"></path></g><g transform="translate(-6,-30) scale(1,1)"><g><path fill="none" stroke="none"></path><text fill="#000000" stroke="none" font-family="Arial" font-size="13px" font-style="normal" font-weight="bold" text-decoration="none" x="396.5" y="83.5">Gestion Ensemble de Pizzerias</text></g></g><g transform="translate(-6,-30) scale(1,1)"><path fill="#C0C0C0" stroke="none" d="M 383 170.5 C 383 155.31216799999999 425.9806592 143 479 143 C 532.0193408 143 575 155.31216799999999 575 170.5 C 575 185.68783200000001 532.0193408 198 479 198 C 425.9806592 198 383 185.68783200000001 383 170.5 Z" opacity="0.2"></path></g><g transform="translate(-6,-30) scale(1,1)"><path fill="#ffffff" stroke="none" d="M 376 163.5 C 376 148.31216799999999 418.9806592 136 472 136 C 525.0193408 136 568 148.31216799999999 568 163.5 C 568 178.68783200000001 525.0193408 191 472 191 C 418.9806592 191 376 178.68783200000001 376 163.5 Z"></path></g><g transform="translate(-6,-30) scale(1,1)"><path fill="none" stroke="#000000" d="M 376 163.5 C 376 148.31216799999999 418.9806592 136 472 136 C 525.0193408 136 568 148.31216799999999 568 163.5 C 568 178.68783200000001 525.0193408 191 472 191 C 418.9806592 191 376 178.68783200000001 376 163.5 Z" stroke-miterlimit="10"></path></g><g transform="translate(-6,-30) scale(1,1)"><g><path fill="none" stroke="none"></path><text fill="#000000" stroke="none" font-family="Arial" font-size="13px" font-style="normal" font-weight="bold" text-decoration="none" x="415" y="170.5">Commander Pizzas</text></g></g><g transform="translate(-6,-30) scale(1,1)"><path fill="#ffffff" stroke="none" d="M 41.53490909090909 51.04 C 41.53490909090909 45.495060608 45.99643176029091 41 51.5 41 C 57.00356823970909 41 61.46509090909091 45.495060608 61.46509090909091 51.04 C 61.46509090909091 56.584939391999995 57.00356823970909 61.08 51.5 61.08 C 45.99643176029091 61.08 41.53490909090909 56.584939391999995 41.53490909090909 51.04 Z"></path></g><g transform="translate(-6,-30) scale(1,1)"><path fill="none" stroke="#000000" d="M 41.53490909090909 51.04 C 41.53490909090909 45.495060608 45.99643176029091 41 51.5 41 C 57.00356823970909 41 61.46509090909091 45.495060608 61.46509090909091 51.04 C 61.46509090909091 56.584939391999995 57.00356823970909 61.08 51.5 61.08 C 45.99643176029091 61.08 41.53490909090909 56.584939391999995 41.53490909090909 51.04 Z" stroke-miterlimit="10"></path></g><g transform="translate(-6,-30) scale(1,1)"><path fill="none" stroke="#000000" d="M 51.5 61.08 L 51.5 80.92" stroke-miterlimit="10"></path></g><g transform="translate(-6,-30) scale(1,1)"><path fill="none" stroke="#000000" d="M 40.94872727272727 68.52 L 62.05127272727273 68.52" stroke-miterlimit="10"></path></g><g transform="translate(-6,-30) scale(1,1)"><path fill="none" stroke="#000000" d="M 51.5 80.92 L 36.845454545454544 101" stroke-miterlimit="10"></path></g><g transform="translate(-6,-30) scale(1,1)"><path fill="none" stroke="#000000" d="M 51.5 80.92 L 66.15454545454546 101" stroke-miterlimit="10"></path></g><g transform="translate(-6,-30) scale(1,1)"><g><path fill="none" stroke="none"></path><text fill="#000000" stroke="none" font-family="Arial" font-size="13px" font-style="normal" font-weight="bold" text-decoration="none" x="26" y="121.5">Employé</text></g></g><g transform="translate(-6,-30) scale(1,1)"><path fill="#ffffff" stroke="none" d="M 201.82072727272728 385.68 C 201.82072727272728 380.886167936 205.70656959767274 377 210.5 377 C 215.29343040232726 377 219.17927272727272 380.886167936 219.17927272727272 385.68 C 219.17927272727272 390.473832064 215.29343040232726 394.36 210.5 394.36 C 205.70656959767274 394.36 201.82072727272728 390.473832064 201.82072727272728 385.68 Z"></path></g><g transform="translate(-6,-30) scale(1,1)"><path fill="none" stroke="#000000" d="M 201.82072727272728 385.68 C 201.82072727272728 380.886167936 205.70656959767274 377 210.5 377 C 215.29343040232726 377 219.17927272727272 380.886167936 219.17927272727272 385.68 C 219.17927272727272 390.473832064 215.29343040232726 394.36 210.5 394.36 C 205.70656959767274 394.36 201.82072727272728 390.473832064 201.82072727272728 385.68 Z" stroke-miterlimit="10"></path></g><g transform="translate(-6,-30) scale(1,1)"><path fill="none" stroke="#000000" d="M 210.5 394.36 L 210.5 411.64" stroke-miterlimit="10"></path></g><g transform="translate(-6,-30) scale(1,1)"><path fill="none" stroke="#000000" d="M 201.31018181818183 400.84 L 219.68981818181817 400.84" stroke-miterlimit="10"></path></g><g transform="translate(-6,-30) scale(1,1)"><path fill="none" stroke="#000000" d="M 210.5 411.64 L 197.73636363636365 429" stroke-miterlimit="10"></path></g><g transform="translate(-6,-30) scale(1,1)"><path fill="none" stroke="#000000" d="M 210.5 411.64 L 223.26363636363635 429" stroke-miterlimit="10"></path></g><g transform="translate(-6,-30) scale(1,1)"><g><path fill="none" stroke="none"></path><text fill="#000000" stroke="none" font-family="Arial" font-size="13px" font-style="normal" font-weight="bold" text-decoration="none" x="191" y="449.5">Livreur</text></g></g><g transform="translate(-6,-30) scale(1,1)"><path fill="#ffffff" stroke="none" d="M 201.82072727272728 241.68 C 201.82072727272728 236.886167936 205.70656959767274 233 210.5 233 C 215.29343040232726 233 219.17927272727272 236.886167936 219.17927272727272 241.68 C 219.17927272727272 246.47383206400002 215.29343040232726 250.36 210.5 250.36 C 205.70656959767274 250.36 201.82072727272728 246.47383206400002 201.82072727272728 241.68 Z"></path></g><g transform="translate(-6,-30) scale(1,1)"><path fill="none" stroke="#000000" d="M 201.82072727272728 241.68 C 201.82072727272728 236.886167936 205.70656959767274 233 210.5 233 C 215.29343040232726 233 219.17927272727272 236.886167936 219.17927272727272 241.68 C 219.17927272727272 246.47383206400002 215.29343040232726 250.36 210.5 250.36 C 205.70656959767274 250.36 201.82072727272728 246.47383206400002 201.82072727272728 241.68 Z" stroke-miterlimit="10"></path></g><g transform="translate(-6,-30) scale(1,1)"><path fill="none" stroke="#000000" d="M 210.5 250.36 L 210.5 267.64" stroke-miterlimit="10"></path></g><g transform="translate(-6,-30) scale(1,1)"><path fill="none" stroke="#000000" d="M 201.31018181818183 256.84 L 219.68981818181817 256.84" stroke-miterlimit="10"></path></g><g transform="translate(-6,-30) scale(1,1)"><path fill="none" stroke="#000000" d="M 210.5 267.64 L 197.73636363636365 285" stroke-miterlimit="10"></path></g><g transform="translate(-6,-30) scale(1,1)"><path fill="none" stroke="#000000" d="M 210.5 267.64 L 223.26363636363635 285" stroke-miterlimit="10"></path></g><g transform="translate(-6,-30) scale(1,1)"><g><path fill="none" stroke="none"></path><text fill="#000000" stroke="none" font-family="Arial" font-size="13px" font-style="normal" font-weight="bold" text-decoration="none" x="167.5" y="305.5">Receptionniste</text></g></g><g transform="translate(-6,-30) scale(1,1)"><path fill="#ffffff" stroke="none" d="M 200.32072727272728 137.68 C 200.32072727272728 132.886167936 204.20656959767274 129 209 129 C 213.79343040232726 129 217.67927272727272 132.886167936 217.67927272727272 137.68 C 217.67927272727272 142.47383206400002 213.79343040232726 146.36 209 146.36 C 204.20656959767274 146.36 200.32072727272728 142.47383206400002 200.32072727272728 137.68 Z"></path></g><g transform="translate(-6,-30) scale(1,1)"><path fill="none" stroke="#000000" d="M 200.32072727272728 137.68 C 200.32072727272728 132.886167936 204.20656959767274 129 209 129 C 213.79343040232726 129 217.67927272727272 132.886167936 217.67927272727272 137.68 C 217.67927272727272 142.47383206400002 213.79343040232726 146.36 209 146.36 C 204.20656959767274 146.36 200.32072727272728 142.47383206400002 200.32072727272728 137.68 Z" stroke-miterlimit="10"></path></g><g transform="translate(-6,-30) scale(1,1)"><path fill="none" stroke="#000000" d="M 209 146.36 L 209 163.64" stroke-miterlimit="10"></path></g><g transform="translate(-6,-30) scale(1,1)"><path fill="none" stroke="#000000" d="M 199.81018181818183 152.84 L 218.18981818181817 152.84" stroke-miterlimit="10"></path></g><g transform="translate(-6,-30) scale(1,1)"><path fill="none" stroke="#000000" d="M 209 163.64 L 196.23636363636365 181" stroke-miterlimit="10"></path></g><g transform="translate(-6,-30) scale(1,1)"><path fill="none" stroke="#000000" d="M 209 163.64 L 221.76363636363635 181" stroke-miterlimit="10"></path></g><g transform="translate(-6,-30) scale(1,1)"><g><path fill="none" stroke="none"></path><text fill="#000000" stroke="none" font-family="Arial" font-size="13px" font-style="normal" font-weight="bold" text-decoration="none" x="189.5" y="201.5">Gérant</text></g></g><g transform="translate(-6,-30) scale(1,1)"><path fill="none" stroke="#000000" d="M 191 375 L 73 128" stroke-miterlimit="10"></path></g><g transform="translate(-6,-30) scale(1,1)"><path fill="#FFFFFF" stroke="none" d="M 89.35826183575936 142.71078752863826 L 73 128 L 74.16494025439594 149.96913549058516"></path></g><g transform="translate(-6,-30) scale(1,1)"><path fill="none" stroke="#000000" d="M 89.35826183575936 142.71078752863826 L 73 128 L 74.16494025439594 149.96913549058516 L 89.35826183575936 142.71078752863826" stroke-miterlimit="10"></path></g><g transform="translate(-6,-30) scale(1,1)"><path fill="none" stroke="#000000" d="M 176 231 L 88 127" stroke-miterlimit="10"></path></g><g transform="translate(-6,-30) scale(1,1)"><path fill="#FFFFFF" stroke="none" d="M 107.55597819957211 137.07788254832636 L 88 127 L 94.7020257077306 147.95430388757686"></path></g><g transform="translate(-6,-30) scale(1,1)"><path fill="none" stroke="#000000" d="M 107.55597819957211 137.07788254832636 L 88 127 L 94.7020257077306 147.95430388757686 L 107.55597819957211 137.07788254832636" stroke-miterlimit="10"></path></g><g transform="translate(-6,-30) scale(1,1)"><path fill="none" stroke="#000000" d="M 183 153 L 88 103" stroke-miterlimit="10"></path></g><g transform="translate(-6,-30) scale(1,1)"><path fill="#FFFFFF" stroke="none" d="M 109.90740809692973 105.01630118647434 L 88 103 L 102.0651365816896 119.91661706543057"></path></g><g transform="translate(-6,-30) scale(1,1)"><path fill="none" stroke="#000000" d="M 109.90740809692973 105.01630118647434 L 88 103 L 102.0651365816896 119.91661706543057 L 109.90740809692973 105.01630118647434" stroke-miterlimit="10"></path></g></g></svg>